<?xml version="1.0" standalone="no"?>
<!DOCTYPE svg PUBLIC "-//W3C//DTD SVG 20010904//EN"
 "http://www.w3.org/TR/2001/REC-SVG-20010904/DTD/svg10.dtd">
<svg version="1.0" xmlns="http://www.w3.org/2000/svg"
 width="700.000000pt" height="700.000000pt" viewBox="0 0 700.000000 700.000000"
 preserveAspectRatio="xMidYMid meet">
<metadata>
Created by potrace 1.11, written by Peter Selinger 2001-2013
</metadata>
<g transform="translate(0.000000,700.000000) scale(0.100000,-0.100000)"
fill="#000000" stroke="none">
<path d="M1949 6996 c-2 -2 -35 -6 -74 -10 -244 -21 -514 -103 -751 -227 -551
-289 -951 -818 -1078 -1426 -15 -72 -21 -105 -35 -218 -12 -89 -13 -3151 -1
-3225 5 -30 11 -73 14 -95 51 -390 247 -806 521 -1104 211 -230 441 -394 735
-523 61 -27 264 -97 301 -103 16 -3 57 -12 91 -20 35 -8 86 -17 113 -21 28 -3
59 -9 70 -12 34 -11 3184 -11 3260 -1 348 46 618 138 880 299 66 40 154 99
165 110 3 3 28 23 55 45 283 226 524 556 648 890 27 74 75 229 82 267 3 13 7
34 10 48 43 203 43 206 43 1830 0 1684 1 1646 -58 1895 -180 758 -790 1367
-1549 1546 -117 28 -120 28 -171 34 -25 3 -56 8 -70 12 -25 7 -3193 16 -3201
9z m469 -2773 c22 -49 66 -144 97 -213 32 -69 74 -161 94 -205 21 -44 50 -109
67 -145 16 -35 43 -93 59 -127 l30 -63 130 282 c117 255 200 435 242 526 l15
32 267 0 267 0 0 -895 0 -895 -246 0 -246 0 0 465 c1 256 0 465 -2 465 -3 0
-92 -189 -92 -195 0 -2 -13 -32 -29 -67 -70 -149 -163 -354 -168 -370 -5 -16
-20 -18 -138 -18 l-133 0 -21 45 c-12 25 -21 47 -21 49 0 2 -20 46 -44 97 -24
52 -55 119 -68 149 -76 170 -141 310 -144 310 -2 0 -3 -199 -3 -442 0 -244 0
-453 0 -466 l-1 -22 -242 2 -243 3 -2 893 -2 892 268 0 268 0 41 -87z m2066
-595 l0 -678 403 0 c315 0 403 -3 404 -12 1 -7 2 -104 3 -215 l1 -203 -652 0
-652 0 0 895 0 895 246 -2 247 -3 0 -677z"/>
</g>
</svg>
