<svg width="343" height="343" viewBox="0 0 343 343" fill="none" xmlns="http://www.w3.org/2000/svg">
<circle cx="5" cy="5" r="5" fill="#F1F1F1"/>
<circle cx="41.9474" cy="5" r="5" fill="#F1F1F1"/>
<circle cx="78.8947" cy="5" r="5" fill="#F1F1F1"/>
<circle cx="115.842" cy="5" r="5" fill="#F1F1F1"/>
<circle cx="152.789" cy="5" r="5" fill="#F1F1F1"/>
<circle cx="189.737" cy="5" r="5" fill="#F1F1F1"/>
<circle cx="226.684" cy="5" r="5" fill="#F1F1F1"/>
<circle cx="263.632" cy="5" r="5" fill="#F1F1F1"/>
<circle cx="300.579" cy="5" r="5" fill="#F1F1F1"/>
<circle cx="337.526" cy="5" r="5" fill="#F1F1F1"/>
<circle cx="5" cy="41.9474" r="5" fill="#F1F1F1"/>
<circle cx="41.9474" cy="41.9474" r="5" fill="#F1F1F1"/>
<circle cx="78.8947" cy="41.9474" r="5" fill="#F1F1F1"/>
<circle cx="115.842" cy="41.9474" r="5" fill="#F1F1F1"/>
<circle cx="152.789" cy="41.9474" r="5" fill="#F1F1F1"/>
<circle cx="189.737" cy="41.9474" r="5" fill="#F1F1F1"/>
<circle cx="226.684" cy="41.9474" r="5" fill="#F1F1F1"/>
<circle cx="263.632" cy="41.9474" r="5" fill="#F1F1F1"/>
<circle cx="300.579" cy="41.9474" r="5" fill="#F1F1F1"/>
<circle cx="337.526" cy="41.9474" r="5" fill="#F1F1F1"/>
<circle cx="5" cy="78.8947" r="5" fill="#F1F1F1"/>
<circle cx="41.9474" cy="78.8947" r="5" fill="#F1F1F1"/>
<circle cx="78.8947" cy="78.8947" r="5" fill="#F1F1F1"/>
<circle cx="115.842" cy="78.8947" r="5" fill="#F1F1F1"/>
<circle cx="152.789" cy="78.8947" r="5" fill="#F1F1F1"/>
<circle cx="189.737" cy="78.8947" r="5" fill="#F1F1F1"/>
<circle cx="226.684" cy="78.8947" r="5" fill="#F1F1F1"/>
<circle cx="263.632" cy="78.8947" r="5" fill="#F1F1F1"/>
<circle cx="300.579" cy="78.8947" r="5" fill="#F1F1F1"/>
<circle cx="337.526" cy="78.8947" r="5" fill="#F1F1F1"/>
<circle cx="5" cy="115.842" r="5" fill="#F1F1F1"/>
<circle cx="41.9474" cy="115.842" r="5" fill="#F1F1F1"/>
<circle cx="78.8947" cy="115.842" r="5" fill="#F1F1F1"/>
<circle cx="115.842" cy="115.842" r="5" fill="#F1F1F1"/>
<circle cx="152.789" cy="115.842" r="5" fill="#F1F1F1"/>
<circle cx="189.737" cy="115.842" r="5" fill="#F1F1F1"/>
<circle cx="226.684" cy="115.842" r="5" fill="#F1F1F1"/>
<circle cx="263.632" cy="115.842" r="5" fill="#F1F1F1"/>
<circle cx="300.579" cy="115.842" r="5" fill="#F1F1F1"/>
<circle cx="337.526" cy="115.842" r="5" fill="#F1F1F1"/>
<circle cx="5" cy="152.789" r="5" fill="#F1F1F1"/>
<circle cx="41.9474" cy="152.789" r="5" fill="#F1F1F1"/>
<circle cx="78.8947" cy="152.789" r="5" fill="#F1F1F1"/>
<circle cx="115.842" cy="152.789" r="5" fill="#F1F1F1"/>
<circle cx="152.789" cy="152.789" r="5" fill="#F1F1F1"/>
<circle cx="189.737" cy="152.789" r="5" fill="#F1F1F1"/>
<circle cx="226.684" cy="152.789" r="5" fill="#F1F1F1"/>
<circle cx="263.632" cy="152.789" r="5" fill="#F1F1F1"/>
<circle cx="300.579" cy="152.789" r="5" fill="#F1F1F1"/>
<circle cx="337.526" cy="152.789" r="5" fill="#F1F1F1"/>
<circle cx="5" cy="189.737" r="5" fill="#F1F1F1"/>
<circle cx="41.9474" cy="189.737" r="5" fill="#F1F1F1"/>
<circle cx="78.8947" cy="189.737" r="5" fill="#F1F1F1"/>
<circle cx="115.842" cy="189.737" r="5" fill="#F1F1F1"/>
<circle cx="152.789" cy="189.737" r="5" fill="#F1F1F1"/>
<circle cx="189.737" cy="189.737" r="5" fill="#F1F1F1"/>
<circle cx="226.684" cy="189.737" r="5" fill="#F1F1F1"/>
<circle cx="263.632" cy="189.737" r="5" fill="#F1F1F1"/>
<circle cx="300.579" cy="189.737" r="5" fill="#F1F1F1"/>
<circle cx="337.526" cy="189.737" r="5" fill="#F1F1F1"/>
<circle cx="5" cy="226.684" r="5" fill="#F1F1F1"/>
<circle cx="41.9474" cy="226.684" r="5" fill="#F1F1F1"/>
<circle cx="78.8947" cy="226.684" r="5" fill="#F1F1F1"/>
<circle cx="115.842" cy="226.684" r="5" fill="#F1F1F1"/>
<circle cx="152.789" cy="226.684" r="5" fill="#F1F1F1"/>
<circle cx="189.737" cy="226.684" r="5" fill="#F1F1F1"/>
<circle cx="226.684" cy="226.684" r="5" fill="#F1F1F1"/>
<circle cx="263.632" cy="226.684" r="5" fill="#F1F1F1"/>
<circle cx="300.579" cy="226.684" r="5" fill="#F1F1F1"/>
<circle cx="337.526" cy="226.684" r="5" fill="#F1F1F1"/>
<circle cx="5" cy="263.632" r="5" fill="#F1F1F1"/>
<circle cx="41.9474" cy="263.632" r="5" fill="#F1F1F1"/>
<circle cx="78.8947" cy="263.632" r="5" fill="#F1F1F1"/>
<circle cx="115.842" cy="263.632" r="5" fill="#F1F1F1"/>
<circle cx="152.789" cy="263.632" r="5" fill="#F1F1F1"/>
<circle cx="189.737" cy="263.632" r="5" fill="#F1F1F1"/>
<circle cx="226.684" cy="263.632" r="5" fill="#F1F1F1"/>
<circle cx="263.632" cy="263.632" r="5" fill="#F1F1F1"/>
<circle cx="300.579" cy="263.632" r="5" fill="#F1F1F1"/>
<circle cx="337.526" cy="263.632" r="5" fill="#F1F1F1"/>
<circle cx="5" cy="300.579" r="5" fill="#F1F1F1"/>
<circle cx="41.9474" cy="300.579" r="5" fill="#F1F1F1"/>
<circle cx="78.8947" cy="300.579" r="5" fill="#F1F1F1"/>
<circle cx="115.842" cy="300.579" r="5" fill="#F1F1F1"/>
<circle cx="152.789" cy="300.579" r="5" fill="#F1F1F1"/>
<circle cx="189.737" cy="300.579" r="5" fill="#F1F1F1"/>
<circle cx="226.684" cy="300.579" r="5" fill="#F1F1F1"/>
<circle cx="263.632" cy="300.579" r="5" fill="#F1F1F1"/>
<circle cx="300.579" cy="300.579" r="5" fill="#F1F1F1"/>
<circle cx="337.526" cy="300.579" r="5" fill="#F1F1F1"/>
<circle cx="5" cy="337.526" r="5" fill="#F1F1F1"/>
<circle cx="41.9474" cy="337.526" r="5" fill="#F1F1F1"/>
<circle cx="78.8947" cy="337.526" r="5" fill="#F1F1F1"/>
<circle cx="115.842" cy="337.526" r="5" fill="#F1F1F1"/>
<circle cx="152.789" cy="337.526" r="5" fill="#F1F1F1"/>
<circle cx="189.737" cy="337.526" r="5" fill="#F1F1F1"/>
<circle cx="226.684" cy="337.526" r="5" fill="#F1F1F1"/>
<circle cx="263.632" cy="337.526" r="5" fill="#F1F1F1"/>
<circle cx="300.579" cy="337.526" r="5" fill="#F1F1F1"/>
<circle cx="337.526" cy="337.526" r="5" fill="#F1F1F1"/>
</svg>
