<svg width="166" height="27" viewBox="0 0 166 27" fill="none" xmlns="http://www.w3.org/2000/svg">
<path d="M19.53 26V12.536L15.246 22.004H11.502L7.21795 12.536V26H0.197953V0.439999H7.86595L13.374 12.464L18.918 0.439999H26.55V26H19.53ZM49.1405 19.88V26H30.9245V0.439999H48.8165V6.56H37.9445V10.16H47.2325V15.848H37.9445V19.88H49.1405ZM70.621 19.88V26H52.405V0.439999H70.297V6.56H59.425V10.16H68.713V15.848H59.425V19.88H70.621ZM93.7935 6.56H86.4495V26H79.4295V6.56H72.0495V0.439999H93.7935V6.56ZM97.2143 26V0.439999H100.454V23.12H114.71V26H97.2143ZM127.797 26.18C125.997 26.18 124.365 25.82 122.901 25.1C121.437 24.38 120.165 23.408 119.085 22.184C118.029 20.936 117.213 19.544 116.637 18.008C116.061 16.448 115.773 14.852 115.773 13.22C115.773 11.516 116.073 9.896 116.673 8.36C117.297 6.8 118.149 5.42 119.229 4.22C120.333 2.996 121.617 2.036 123.081 1.34C124.545 0.619998 126.141 0.259999 127.869 0.259999C129.669 0.259999 131.301 0.631999 132.765 1.376C134.229 2.12 135.489 3.116 136.545 4.364C137.601 5.612 138.417 7.004 138.993 8.54C139.569 10.076 139.857 11.648 139.857 13.256C139.857 14.96 139.557 16.592 138.957 18.152C138.357 19.688 137.505 21.068 136.401 22.292C135.321 23.492 134.049 24.44 132.585 25.136C131.121 25.832 129.525 26.18 127.797 26.18ZM119.049 13.22C119.049 14.516 119.253 15.776 119.661 17C120.093 18.2 120.693 19.268 121.461 20.204C122.229 21.14 123.153 21.884 124.233 22.436C125.313 22.988 126.513 23.264 127.833 23.264C129.201 23.264 130.425 22.976 131.505 22.4C132.585 21.824 133.497 21.056 134.241 20.096C135.009 19.136 135.585 18.056 135.969 16.856C136.377 15.656 136.581 14.444 136.581 13.22C136.581 11.924 136.365 10.676 135.933 9.476C135.525 8.276 134.925 7.208 134.133 6.272C133.365 5.312 132.441 4.568 131.361 4.04C130.305 3.488 129.129 3.212 127.833 3.212C126.465 3.212 125.241 3.5 124.161 4.076C123.081 4.628 122.157 5.384 121.389 6.344C120.645 7.304 120.069 8.384 119.661 9.584C119.253 10.76 119.049 11.972 119.049 13.22ZM154.619 26.18C152.939 26.18 151.367 25.82 149.903 25.1C148.463 24.356 147.203 23.372 146.123 22.148C145.043 20.9 144.203 19.508 143.603 17.972C143.003 16.412 142.703 14.804 142.703 13.148C142.703 11.42 143.003 9.788 143.603 8.252C144.203 6.692 145.031 5.312 146.087 4.112C147.167 2.912 148.427 1.976 149.867 1.304C151.331 0.607999 152.915 0.259999 154.619 0.259999C157.091 0.259999 159.131 0.775999 160.739 1.808C162.347 2.84 163.559 4.184 164.375 5.84L161.891 7.568C161.147 6.08 160.127 4.976 158.831 4.256C157.535 3.536 156.107 3.176 154.547 3.176C153.251 3.176 152.075 3.452 151.019 4.004C149.963 4.556 149.051 5.312 148.283 6.272C147.539 7.208 146.963 8.276 146.555 9.476C146.171 10.676 145.979 11.924 145.979 13.22C145.979 15.044 146.363 16.724 147.131 18.26C147.923 19.772 148.991 20.984 150.335 21.896C151.679 22.808 153.191 23.264 154.871 23.264C156.239 23.264 157.547 22.94 158.795 22.292C160.067 21.62 161.267 20.6 162.395 19.232V15.704H156.887V13.256H165.131V26H162.395V22.544C160.187 24.968 157.595 26.18 154.619 26.18Z" fill="#35CD00"/>
</svg>
